<svg id="thehive_logo_combined_logo_stone" xmlns="http://www.w3.org/2000/svg" width="239.089" height="38.874" viewBox="0 0 239.089 38.874">
  <g id="Group_1021" data-name="Group 1021" transform="translate(42.675)">
    <path id="Path_186" data-name="Path 186" d="M590.686,62.052V32.012H581.8V25.9h24.783v6.111h-8.963V62.052h-6.933Z" transform="translate(-581.8 -24)" fill="#fff"/>
    <path id="Path_187" data-name="Path 187" d="M1336.674,178.362a13.882,13.882,0,0,1-7.138-1.772,12.029,12.029,0,0,1-4.674-4.93,15.3,15.3,0,0,1-1.642-7.163,15.944,15.944,0,0,1,1.566-7.139,11.8,11.8,0,0,1,4.6-5.006,13.586,13.586,0,0,1,7.138-1.822,12.656,12.656,0,0,1,6.753,1.719,10.694,10.694,0,0,1,4.211,4.88,18.175,18.175,0,0,1,1.413,7.471c0,.582-.018,1.078-.051,1.489h-19.154a7.663,7.663,0,0,0,2.157,5.187,7.011,7.011,0,0,0,4.93,1.694,6.259,6.259,0,0,0,3.594-.975,5.079,5.079,0,0,0,2-2.671h6.316a10.437,10.437,0,0,1-4.185,6.752A13.306,13.306,0,0,1,1336.674,178.362Zm5.7-16.742a6.043,6.043,0,0,0-1.746-4.185,5.846,5.846,0,0,0-4.109-1.413,6.615,6.615,0,0,0-4.34,1.413,7,7,0,0,0-2.285,4.185Z" transform="translate(-1268.837 -139.489)" fill="#fff"/>
    <path id="Path_188" data-name="Path 188" d="M2406.031,8.524a4.014,4.014,0,0,1-2.98-1.258,4.086,4.086,0,0,1-1.231-2.953,4.206,4.206,0,0,1,1.231-3.055A4.019,4.019,0,0,1,2406.031,0a4.166,4.166,0,0,1,3.055,1.258,4.16,4.16,0,0,1,1.258,3.055,4.044,4.044,0,0,1-1.258,2.953A4.161,4.161,0,0,1,2406.031,8.524Zm-3.391,29.528V11.862h6.78v26.19h-6.78Z" transform="translate(-2268.321)" fill="#fff"/>
    <path id="Path_189" data-name="Path 189" d="M2556.855,187.91l-10.425-26.19h6.882l6.882,18.127,6.83-18.127h6.882l-10.425,26.19Z" transform="translate(-2402.324 -149.858)" fill="#fff"/>
    <path id="Path_190" data-name="Path 190" d="M2922.944,178.362a13.88,13.88,0,0,1-7.137-1.772,12.026,12.026,0,0,1-4.674-4.93,15.293,15.293,0,0,1-1.642-7.163,15.944,15.944,0,0,1,1.566-7.139,11.8,11.8,0,0,1,4.6-5.006,13.586,13.586,0,0,1,7.138-1.822,12.66,12.66,0,0,1,6.754,1.719,10.692,10.692,0,0,1,4.211,4.88,18.174,18.174,0,0,1,1.413,7.471c0,.582-.019,1.078-.052,1.489h-19.154a7.665,7.665,0,0,0,2.156,5.187,7.013,7.013,0,0,0,4.93,1.694,6.259,6.259,0,0,0,3.595-.975,5.079,5.079,0,0,0,2-2.671h6.316a10.436,10.436,0,0,1-4.184,6.752A13.307,13.307,0,0,1,2922.944,178.362Zm5.7-16.742a6.043,6.043,0,0,0-1.745-4.185,5.846,5.846,0,0,0-4.109-1.413,6.615,6.615,0,0,0-4.34,1.413,7.006,7.006,0,0,0-2.285,4.185Z" transform="translate(-2738.753 -139.489)" fill="#fff"/>
    <path id="Path_191" data-name="Path 191" d="M982.4,37.941a8.619,8.619,0,0,0-6.907-2.9,9.081,9.081,0,0,0-4.622,1.155,9.356,9.356,0,0,0-3.286,3.21v-9.68L960.96,25.9V62.052h6.625V47.981a9.391,9.391,0,0,1,.719-3.8,5.887,5.887,0,0,1,2-2.541,5.061,5.061,0,0,1,2.978-.9,4.582,4.582,0,0,1,3.646,1.413,6.117,6.117,0,0,1,1.233,4.135V62.052h6.727V45.876Q984.891,40.845,982.4,37.941Z" transform="translate(-933.148 -24)" fill="#fff"/>
    <path id="Path_192" data-name="Path 192" d="M1959.7,25.929V40.587h-17.305V29.9h0l-6.93-4h0V62.052h6.933V46.7H1959.7V62.052h6.88V29.9Z" transform="translate(-1836.168 -24)" fill="#fff"/>
  </g>
  <g id="Group_1022" data-name="Group 1022" transform="translate(0 1.82)">
    <path id="Path_193" data-name="Path 193" d="M18.145,24.81A18.144,18.144,0,1,0,36.289,42.954,18.144,18.144,0,0,0,18.145,24.81Zm5.878,26.216H20.5l3.78-6.547H12l3.78,6.547H12.266l-4.659-8.07,4.661-8.074h3.518L12,41.433H24.285L20.5,34.882H24.02l4.661,8.074Z" transform="translate(0 -24.81)" fill="#fff"/>
  </g>
</svg>
